<svg width="23" height="23" xmlns="http://www.w3.org/2000/svg" xmlns:xlink="http://www.w3.org/1999/xlink" xmlns:svgjs="http://svgjs.com/svgjs" viewBox="0 0 22.999 23" fill="#fff"><svg xmlns="http://www.w3.org/2000/svg" width="23" height="23" viewBox="1 1 22 22.001"><path paint-order="stroke fill markers" fill-rule="evenodd" d="M21.635 6.367a11.586 11.586 0 0 0-1.748-2.23 11.624 11.624 0 0 0-2.269-1.754L19 1s2 0 3 1 1 3 1 3l-1.365 1.366zM10 18H6v-4l.48-.48a8.353 8.353 0 0 1 4 4L10 18zm10.48-10.48l-8.845 8.845a11.572 11.572 0 0 0-4.017-3.984L16.48 3.52a8.357 8.357 0 0 1 4 4.001zM4 4.001v16h16v-7l3-3.039V21a2 2 0 0 1-2 2.001H3a2 2 0 0 1-2-2V3a2 2 0 0 1 2-2h11.01l-3.001 3H4z"/></svg></svg>