<svg width="17" height="17" xmlns="http://www.w3.org/2000/svg" xmlns:xlink="http://www.w3.org/1999/xlink" xmlns:svgjs="http://svgjs.com/svgjs" fill="#bdc3c7"><svg xmlns="http://www.w3.org/2000/svg" width="17" height="17" viewBox="1 2 15.972 15.972"><path paint-order="stroke fill markers" fill-rule="evenodd" d="M16.533 17.533a1.5 1.5 0 0 1-2.121 0l-2.647-2.648A6.946 6.946 0 0 1 8 16a7 7 0 1 1 7-7c0 1.39-.417 2.676-1.114 3.764l2.647 2.648a1.5 1.5 0 0 1 0 2.121zM8 4a5 5 0 1 0 0 10A5 5 0 0 0 8 4z"/></svg></svg>